<svg width="204.55" height="39.351" viewBox="0 0 204.55 39.351" xmlns="http://www.w3.org/2000/svg"><g id="svgGroup" stroke-linecap="round" fill-rule="evenodd" font-size="9pt" stroke="#3c3c43" stroke-width="0" fill="#3c3c43" style="stroke:#3c3c43;stroke-width:0;fill:#3c3c43"><path d="M 0.2 16.151 L 1.25 9.951 A 12.664 12.664 0 0 1 2.499 6.207 A 10.454 10.454 0 0 1 5.675 2.576 A 12.766 12.766 0 0 1 9.831 0.645 Q 11.603 0.163 13.7 0.042 A 25.104 25.104 0 0 1 15.15 0.001 A 19.507 19.507 0 0 1 18.803 0.311 Q 24.777 1.456 25.172 6.82 A 10.631 10.631 0 0 1 25.2 7.601 A 14.042 14.042 0 0 1 25.14 8.864 A 18.364 18.364 0 0 1 25 10.001 L 24.4 13.551 L 9.15 13.551 L 8.95 14.701 Q 8.85 15.301 8.85 15.801 A 3.303 3.303 0 0 0 9.041 16.972 Q 9.589 18.424 11.716 18.541 A 7.009 7.009 0 0 0 12.1 18.551 A 3.19 3.19 0 0 0 13.272 18.341 A 2.937 2.937 0 0 0 14.15 17.801 A 3.267 3.267 0 0 0 14.777 17.07 A 2.677 2.677 0 0 0 15.15 16.051 L 23.45 16.151 Q 21.873 25.088 11.388 25.483 A 26.267 26.267 0 0 1 10.4 25.501 Q 0 25.501 0 18.301 Q 0 17.301 0.2 16.151 Z M 9.65 10.501 L 16.4 10.501 A 7.956 7.956 0 0 0 16.55 9.682 A 6.008 6.008 0 0 0 16.6 8.926 Q 16.6 8.312 16.135 7.681 A 3.743 3.743 0 0 0 15.95 7.451 A 1.989 1.989 0 0 0 15.09 6.883 Q 14.576 6.701 13.875 6.701 Q 12.45 6.701 11.275 7.651 Q 10.182 8.535 9.716 10.241 A 7.922 7.922 0 0 0 9.65 10.501 Z" id="0" vector-effect="non-scaling-stroke"/><path d="M 71.35 17.901 L 71.1 23.551 Q 68.75 25.501 65.75 25.501 Q 59.744 25.501 59.043 21.054 A 8.05 8.05 0 0 1 58.95 19.801 Q 58.95 18.801 59.15 17.651 L 60.2 11.501 Q 60.35 10.601 60.35 9.701 A 3.135 3.135 0 0 0 60.208 8.715 Q 59.74 7.301 57.725 7.301 A 5.389 5.389 0 0 0 55.778 7.639 Q 54.491 8.134 53.6 9.351 L 50.9 24.801 L 42.4 24.801 L 44.75 11.501 Q 44.9 10.601 44.9 9.701 Q 44.9 7.374 42.361 7.303 A 5.805 5.805 0 0 0 42.2 7.301 A 4.867 4.867 0 0 0 38.647 8.8 A 6.384 6.384 0 0 0 38.5 8.951 L 35.7 24.801 L 27.2 24.801 L 31.45 0.751 L 39.35 0.751 L 38.8 3.751 A 10.263 10.263 0 0 1 41.731 1.222 A 9.356 9.356 0 0 1 46.4 0.051 A 14.756 14.756 0 0 1 48.965 0.255 Q 50.28 0.488 51.248 0.988 A 4.69 4.69 0 0 1 53.8 4.351 A 10.62 10.62 0 0 1 56.453 1.648 Q 58.727 0.076 61.729 0.051 A 11.672 11.672 0 0 1 61.825 0.051 A 17.422 17.422 0 0 1 63.987 0.174 Q 67.202 0.578 68.35 2.301 Q 69.35 3.851 69.35 5.701 A 23.715 23.715 0 0 1 69.288 7.463 A 17.662 17.662 0 0 1 69.1 9.051 L 67.85 16.501 Q 67.8 16.801 67.8 17.051 A 1.733 1.733 0 0 0 67.882 17.609 Q 68.145 18.382 69.246 18.4 A 3.243 3.243 0 0 0 69.3 18.401 A 4.516 4.516 0 0 0 70.499 18.247 A 3.833 3.833 0 0 0 71.35 17.901 Z" id="1" vector-effect="non-scaling-stroke"/><path d="M 101.3 17.901 L 101.05 23.551 Q 98.65 25.501 95.65 25.501 A 11.264 11.264 0 0 1 93.487 25.311 Q 90.019 24.63 89.55 21.501 Q 87.273 25.144 83.046 25.469 A 11.042 11.042 0 0 1 82.2 25.501 Q 75.069 25.501 74.139 20.168 A 10.011 10.011 0 0 1 74 18.451 Q 74 17.251 74.25 15.801 L 75.3 9.951 A 14.654 14.654 0 0 1 76.397 6.363 A 11.319 11.319 0 0 1 78.975 2.776 A 9.811 9.811 0 0 1 84.077 0.301 A 13.798 13.798 0 0 1 86.475 0.101 Q 91.1 0.101 92.75 2.251 L 93 0.751 L 100.6 0.751 L 97.8 16.501 Q 97.75 16.801 97.75 17.101 Q 97.75 18.401 99.075 18.401 Q 100.4 18.401 101.3 17.901 Z M 83.6 10.951 L 82.95 14.701 Q 82.86 15.107 82.851 15.799 A 12.003 12.003 0 0 0 82.85 15.951 A 1.854 1.854 0 0 0 83.068 16.806 Q 83.207 17.077 83.435 17.344 A 3.854 3.854 0 0 0 83.6 17.526 A 2.173 2.173 0 0 0 84.374 18.026 Q 85.024 18.284 85.994 18.3 A 7.871 7.871 0 0 0 86.125 18.301 A 4.011 4.011 0 0 0 89.025 17.081 A 5.414 5.414 0 0 0 89.2 16.901 L 90.7 8.501 Q 90.248 7.473 88.781 7.29 A 5.523 5.523 0 0 0 88.1 7.251 A 5.94 5.94 0 0 0 86.375 7.482 Q 84.449 8.066 83.799 10.125 A 6.447 6.447 0 0 0 83.6 10.951 Z" id="2" vector-effect="non-scaling-stroke"/><path d="M 116.3 0.751 L 113.95 14.051 Q 113.8 14.951 113.8 15.851 Q 113.8 18.178 116.339 18.249 A 5.805 5.805 0 0 0 116.5 18.251 A 5.109 5.109 0 0 0 118.484 17.875 A 4.795 4.795 0 0 0 120.15 16.701 L 122.95 0.751 L 131.45 0.751 L 127.05 25.601 Q 125.95 31.951 122.025 35.651 A 13.866 13.866 0 0 1 117.959 38.367 A 12.373 12.373 0 0 1 113.05 39.351 A 21.796 21.796 0 0 1 110.5 39.213 Q 107.392 38.845 105.775 37.501 A 5.929 5.929 0 0 1 103.57 33.203 A 7.678 7.678 0 0 1 103.55 32.651 Q 103.55 29.135 107.142 26.27 A 18.119 18.119 0 0 1 108.8 25.101 A 7.046 7.046 0 0 1 107.31 24.566 Q 106.397 24.106 105.834 23.404 A 3.864 3.864 0 0 1 105.2 22.251 A 6.996 6.996 0 0 1 104.813 20.634 A 8.968 8.968 0 0 1 104.75 19.551 Q 104.75 18.051 105 16.501 L 107.8 0.751 L 116.3 0.751 Z M 118.45 26.301 L 118.95 23.401 A 30.405 30.405 0 0 0 116.413 24.723 Q 112.16 27.227 112.006 29.76 A 3.137 3.137 0 0 0 112 29.951 A 2.839 2.839 0 0 0 112.088 30.675 A 2.096 2.096 0 0 0 112.575 31.576 A 1.873 1.873 0 0 0 113.562 32.133 A 2.851 2.851 0 0 0 114.2 32.201 Q 117.191 32.201 118.276 27.204 A 20.019 20.019 0 0 0 118.45 26.301 Z" id="3" vector-effect="non-scaling-stroke"/><path d="M 157.9 9.951 L 156.85 15.801 Q 156.132 19.806 153.972 22.041 A 8.372 8.372 0 0 1 152.425 23.301 A 12.926 12.926 0 0 1 148.834 24.833 Q 146.345 25.501 143.15 25.501 Q 137.656 25.501 134.943 23.527 A 6.784 6.784 0 0 1 134.65 23.301 Q 132.65 21.651 132.65 18.351 Q 132.65 17.201 132.9 15.801 L 133.95 9.951 Q 135.622 0.49 146.793 0.07 A 28.171 28.171 0 0 1 147.85 0.051 Q 151.343 0.051 153.728 1.034 A 8.391 8.391 0 0 1 156 2.401 Q 158.15 4.251 158.15 7.551 A 11.257 11.257 0 0 1 158.075 8.814 A 14.879 14.879 0 0 1 157.9 9.951 Z M 148.55 14.701 L 149.2 10.951 A 4.418 4.418 0 0 0 149.259 10.556 Q 149.3 10.172 149.3 9.676 Q 149.3 8.901 148.65 7.951 A 2.015 2.015 0 0 0 147.62 7.186 Q 147.092 7.001 146.375 7.001 A 4.045 4.045 0 0 0 144.903 7.261 A 3.683 3.683 0 0 0 143.65 8.076 A 4.628 4.628 0 0 0 142.533 9.848 A 6.317 6.317 0 0 0 142.25 10.951 L 141.6 14.701 A 4.418 4.418 0 0 0 141.541 15.096 Q 141.5 15.479 141.5 15.976 A 2.172 2.172 0 0 0 141.631 16.697 Q 141.732 16.983 141.909 17.284 A 4.748 4.748 0 0 0 142.15 17.651 Q 142.8 18.551 144.425 18.551 A 3.862 3.862 0 0 0 145.961 18.252 A 3.685 3.685 0 0 0 147.15 17.426 Q 148.25 16.301 148.55 14.701 Z" id="4" vector-effect="non-scaling-stroke"/><path d="M 204.55 17.901 L 204.3 23.551 Q 201.95 25.501 198.95 25.501 Q 192.944 25.501 192.243 21.054 A 8.05 8.05 0 0 1 192.15 19.801 Q 192.15 18.801 192.35 17.651 L 193.4 11.501 Q 193.55 10.601 193.55 9.701 A 3.135 3.135 0 0 0 193.408 8.715 Q 192.94 7.301 190.925 7.301 A 5.389 5.389 0 0 0 188.978 7.639 Q 187.691 8.134 186.8 9.351 L 184.1 24.801 L 175.6 24.801 L 177.95 11.501 Q 178.1 10.601 178.1 9.701 Q 178.1 7.374 175.561 7.303 A 5.805 5.805 0 0 0 175.4 7.301 A 4.867 4.867 0 0 0 171.847 8.8 A 6.384 6.384 0 0 0 171.7 8.951 L 168.9 24.801 L 160.4 24.801 L 164.65 0.751 L 172.55 0.751 L 172 3.751 A 10.263 10.263 0 0 1 174.931 1.222 A 9.356 9.356 0 0 1 179.6 0.051 A 14.756 14.756 0 0 1 182.165 0.255 Q 183.48 0.488 184.448 0.988 A 4.69 4.69 0 0 1 187 4.351 A 10.62 10.62 0 0 1 189.653 1.648 Q 191.927 0.076 194.929 0.051 A 11.672 11.672 0 0 1 195.025 0.051 A 17.422 17.422 0 0 1 197.187 0.174 Q 200.402 0.578 201.55 2.301 Q 202.55 3.851 202.55 5.701 A 23.715 23.715 0 0 1 202.488 7.463 A 17.662 17.662 0 0 1 202.3 9.051 L 201.05 16.501 Q 201 16.801 201 17.051 A 1.733 1.733 0 0 0 201.082 17.609 Q 201.345 18.382 202.446 18.4 A 3.243 3.243 0 0 0 202.5 18.401 A 4.516 4.516 0 0 0 203.699 18.247 A 3.833 3.833 0 0 0 204.55 17.901 Z" id="5" vector-effect="non-scaling-stroke"/></g></svg>