<?xml version="1.0" encoding="UTF-8"?>
<svg fill="currentColor" width="1200pt" height="1200pt" version="1.1" viewBox="0 0 1200 1200" xmlns="http://www.w3.org/2000/svg">
 <g>
  <path d="m953.77 1201.5h-704.5c-38.438 0-69.684-31.246-69.684-69.684v-1060.6c0-38.438 31.246-69.684 69.684-69.684h704.5c38.426 0 69.684 31.246 69.684 69.684v1060.6c0 38.438-31.246 69.684-69.684 69.684zm-693.32-80.855h682.15v-1038.3h-682.15z"/>
  <path d="m750.84 621.05c-1.8125-3.5898-3.3008-9.8047-3.3008-13.824v-252.77c0-4.0195-3.2891-7.3203-7.3203-7.3203h-275.16c-4.0195 0-7.3086 3.2891-7.3086 7.3203v376.37c0 4.0195 1.4297 10.273 3.2031 13.883l50.207 103.45c1.7656 3.6016 3.2539 6.3711 3.2891 6.1562 0.058594-0.23828 0.37109 0.10938 0.71875 0.78125 0.33594 0.66016 3.8867 1.2109 7.9062 1.2109h240.18c4.0312 0 8.6055-3.0234 10.188-6.7422l39.816-93.742c1.5703-3.7188 1.3672-9.6836-0.45703-13.246zm-176.58 90.23c-4.0195 0-8.5664-3.0352-10.117-6.7812l-32.027-77.363c-1.5352-3.7305 0.49219-6.7695 4.5117-6.7695h150.43c4.0312 0 8.8555 2.9141 10.715 6.4805l40.922 77.953c1.8594 3.5742 0.10938 6.4922-3.9102 6.4922h-160.53zm94.332-302.81c4.0195 0 17.629 19.141 22.199 44.914 7.3203 41.148 6.2383 117.56 6.2383 117.72 0 0.14453-3.2891 0.25391-7.3086 0.25391h-163.32c-4.0312 0-7.3203-3.2773-7.3203-7.3086l0.003906-148.27c0-4.0312 3.2891-7.3203 7.3203-7.3203h142.19zm-105.27 403.1c-4.0312 0-6.2031-3.0977-4.8008-6.875l13.656-37.547c1.4023-3.8047 5.7969-6.8984 9.8281-6.8984h168.74c4.0195 0 6.0234 3.0352 4.4297 6.7305l-16.258 37.859c-1.5977 3.6953-6.168 6.7305-10.199 6.7305z"/>
 </g>
</svg>
